<svg width="46" height="46" viewBox="0 0 46 46" fill="none" xmlns="http://www.w3.org/2000/svg">
<path fill-rule="evenodd" clip-rule="evenodd" d="M23.2295 1.2285L23.001 1L22.7725 1.2285L1.22947 22.7715L1.00098 23L1.22947 23.2285L22.7725 44.7715L23.001 45L23.2295 44.7715L44.7725 23.2285L45.001 23L44.7725 22.7715L23.2295 1.2285ZM23.001 44.086L1.91497 23L23.001 1.91399L44.087 23L23.001 44.086ZM23.0433 7.88662L23.001 7.83272L22.9586 7.88662L11.11 22.9667L11.0838 23L11.11 23.0333L22.9586 38.1134L23.0065 38.1743L23.0469 38.1082L29.1328 28.1445L29.157 28.105L29.1215 28.0752L23.1487 23.0539H34.8496H34.9604L34.892 22.9667L23.0433 7.88662ZM22.9954 37.9859L11.2208 23L23.001 8.00707L34.7388 22.9461H23.001H22.8532L22.9663 23.0412L29.0168 28.1279L22.9954 37.9859Z" fill="#D9083C"/>
<path d="M23.001 1L23.3545 0.646446L23.001 0.292894L22.6474 0.646446L23.001 1ZM23.2295 1.2285L23.583 0.874945L23.583 0.874944L23.2295 1.2285ZM22.7725 1.2285L22.4189 0.874944L22.4189 0.874945L22.7725 1.2285ZM1.22947 22.7715L0.875921 22.4179L0.875921 22.4179L1.22947 22.7715ZM1.00098 23L0.647423 22.6464L0.29387 23L0.647423 23.3536L1.00098 23ZM1.22947 23.2285L0.875921 23.5821L0.875921 23.5821L1.22947 23.2285ZM22.7725 44.7715L22.4189 45.1251L22.4189 45.1251L22.7725 44.7715ZM23.001 45L22.6474 45.3536L23.001 45.7071L23.3545 45.3536L23.001 45ZM23.2295 44.7715L23.583 45.1251L23.583 45.1251L23.2295 44.7715ZM44.7725 23.2285L45.126 23.5821L45.126 23.5821L44.7725 23.2285ZM45.001 23L45.3545 23.3536L45.7081 23L45.3545 22.6464L45.001 23ZM44.7725 22.7715L45.126 22.4179L45.126 22.4179L44.7725 22.7715ZM1.91497 23L1.56142 22.6464L1.20786 23L1.56142 23.3536L1.91497 23ZM23.001 44.086L22.6474 44.4396L23.001 44.7931L23.3545 44.4396L23.001 44.086ZM23.001 1.91399L23.3545 1.56044L23.001 1.20689L22.6474 1.56044L23.001 1.91399ZM44.087 23L44.4405 23.3536L44.7941 23L44.4405 22.6464L44.087 23ZM23.001 7.83272L23.3941 7.52382L23.001 7.02342L22.6078 7.52382L23.001 7.83272ZM23.0433 7.88662L22.6502 8.19553L22.6502 8.19553L23.0433 7.88662ZM22.9586 7.88662L23.3518 8.19553L23.3518 8.19553L22.9586 7.88662ZM11.11 22.9667L11.5031 23.2756L11.5031 23.2756L11.11 22.9667ZM11.0838 23L10.6907 22.6911L10.448 23L10.6907 23.3089L11.0838 23ZM11.11 23.0333L11.5031 22.7244L11.5031 22.7244L11.11 23.0333ZM22.9586 38.1134L23.3518 37.8045L23.3518 37.8045L22.9586 38.1134ZM23.0065 38.1743L22.6134 38.4832L23.058 39.0492L23.4332 38.435L23.0065 38.1743ZM23.0469 38.1082L23.4736 38.3688L23.4736 38.3688L23.0469 38.1082ZM29.1328 28.1445L28.7061 27.8839L28.7061 27.8839L29.1328 28.1445ZM29.157 28.105L29.5837 28.3657L29.8077 27.9989L29.4787 27.7223L29.157 28.105ZM29.1215 28.0752L28.7998 28.458L28.7998 28.458L29.1215 28.0752ZM23.1487 23.0539V22.5539H21.777L22.827 23.4366L23.1487 23.0539ZM34.9604 23.0539V23.5539H35.9891L35.3536 22.745L34.9604 23.0539ZM34.892 22.9667L35.2851 22.6578L35.2851 22.6578L34.892 22.9667ZM11.2208 23L10.8277 22.6911L10.5849 23L10.8277 23.3089L11.2208 23ZM22.9954 37.9859L22.6023 38.2948L23.0469 38.8607L23.4221 38.2465L22.9954 37.9859ZM23.001 8.00707L23.3941 7.69816L23.001 7.19777L22.6078 7.69816L23.001 8.00707ZM34.7388 22.9461V23.4461H35.7675L35.132 22.6372L34.7388 22.9461ZM22.8532 22.9461V22.4461H21.4815L22.5315 23.3289L22.8532 22.9461ZM22.9663 23.0412L22.6446 23.4239L22.6446 23.4239L22.9663 23.0412ZM29.0168 28.1279L29.4435 28.3885L29.6675 28.0217L29.3385 27.7452L29.0168 28.1279ZM22.6474 1.35355L22.8759 1.58205L23.583 0.874944L23.3545 0.646446L22.6474 1.35355ZM23.126 1.58205L23.3545 1.35355L22.6474 0.646446L22.4189 0.874944L23.126 1.58205ZM1.58303 23.1251L23.126 1.58205L22.4189 0.874945L0.875921 22.4179L1.58303 23.1251ZM1.35453 23.3536L1.58303 23.1251L0.875921 22.4179L0.647423 22.6464L1.35453 23.3536ZM1.58303 22.8749L1.35453 22.6464L0.647423 23.3536L0.875921 23.5821L1.58303 22.8749ZM23.126 44.418L1.58303 22.8749L0.875921 23.5821L22.4189 45.1251L23.126 44.418ZM23.3545 44.6464L23.126 44.4179L22.4189 45.1251L22.6474 45.3536L23.3545 44.6464ZM22.8759 44.4179L22.6474 44.6464L23.3545 45.3536L23.583 45.1251L22.8759 44.4179ZM44.4189 22.8749L22.8759 44.418L23.583 45.1251L45.126 23.5821L44.4189 22.8749ZM44.6474 22.6464L44.4189 22.8749L45.126 23.5821L45.3545 23.3536L44.6474 22.6464ZM44.4189 23.1251L44.6474 23.3536L45.3545 22.6464L45.126 22.4179L44.4189 23.1251ZM22.8759 1.58205L44.4189 23.1251L45.126 22.4179L23.583 0.874945L22.8759 1.58205ZM1.56142 23.3536L22.6474 44.4396L23.3545 43.7325L2.26852 22.6464L1.56142 23.3536ZM22.6474 1.56044L1.56142 22.6464L2.26852 23.3536L23.3545 2.26755L22.6474 1.56044ZM44.4405 22.6464L23.3545 1.56044L22.6474 2.26755L43.7334 23.3536L44.4405 22.6464ZM23.3545 44.4396L44.4405 23.3536L43.7334 22.6464L22.6474 43.7325L23.3545 44.4396ZM22.6078 8.14163L22.6502 8.19553L23.4365 7.57771L23.3941 7.52382L22.6078 8.14163ZM23.3518 8.19553L23.3941 8.14163L22.6078 7.52382L22.5655 7.57771L23.3518 8.19553ZM11.5031 23.2756L23.3518 8.19553L22.5655 7.57771L10.7168 22.6578L11.5031 23.2756ZM11.477 23.3089L11.5031 23.2756L10.7168 22.6578L10.6907 22.6911L11.477 23.3089ZM11.5031 22.7244L11.477 22.6911L10.6907 23.3089L10.7168 23.3422L11.5031 22.7244ZM23.3518 37.8045L11.5031 22.7244L10.7168 23.3422L22.5655 38.4223L23.3518 37.8045ZM23.3997 37.8654L23.3518 37.8045L22.5655 38.4223L22.6134 38.4832L23.3997 37.8654ZM22.6202 37.8475L22.5798 37.9137L23.4332 38.435L23.4736 38.3688L22.6202 37.8475ZM28.7061 27.8839L22.6202 37.8475L23.4736 38.3688L29.5595 28.4052L28.7061 27.8839ZM28.7303 27.8444L28.7061 27.8839L29.5595 28.4052L29.5837 28.3657L28.7303 27.8444ZM28.7998 28.458L28.8352 28.4878L29.4787 27.7223L29.4433 27.6925L28.7998 28.458ZM22.827 23.4366L28.7998 28.458L29.4433 27.6925L23.4705 22.6711L22.827 23.4366ZM34.8496 22.5539H23.1487V23.5539H34.8496V22.5539ZM34.9604 22.5539H34.8496V23.5539H34.9604V22.5539ZM34.4988 23.2756L34.5673 23.3628L35.3536 22.745L35.2851 22.6578L34.4988 23.2756ZM22.6502 8.19553L34.4988 23.2756L35.2851 22.6578L23.4365 7.57771L22.6502 8.19553ZM10.8277 23.3089L22.6023 38.2948L23.3886 37.677L11.614 22.6911L10.8277 23.3089ZM22.6078 7.69816L10.8277 22.6911L11.614 23.3089L23.3941 8.31598L22.6078 7.69816ZM35.132 22.6372L23.3941 7.69816L22.6078 8.31598L34.3457 23.2551L35.132 22.6372ZM23.001 23.4461H34.7388V22.4461H23.001V23.4461ZM22.8532 23.4461H23.001V22.4461H22.8532V23.4461ZM23.2881 22.6585L23.175 22.5634L22.5315 23.3289L22.6446 23.4239L23.2881 22.6585ZM29.3385 27.7452L23.2881 22.6585L22.6446 23.4239L28.695 28.5106L29.3385 27.7452ZM23.4221 38.2465L29.4435 28.3885L28.5901 27.8673L22.5687 37.7252L23.4221 38.2465Z" fill="#D9083C"/>
</svg>
